<?xml version="1.0" encoding="UTF-8" standalone="no" ?>
<!DOCTYPE svg PUBLIC "-//W3C//DTD SVG 1.1//EN" "http://www.w3.org/Graphics/SVG/1.1/DTD/svg11.dtd">
<svg xmlns="http://www.w3.org/2000/svg" xmlns:xlink="http://www.w3.org/1999/xlink" version="1.1" width="1080" height="1080" viewBox="0 0 1080 1080" xml:space="preserve">
<desc>Created with Fabric.js 5.2.4</desc>
<defs>
</defs>
<g transform="matrix(1 0 0 1 540 540)" id="573705b7-4d1a-430d-a13f-82a8d0cde22d"  >
</g>
<g transform="matrix(1 0 0 1 540 540)" id="2274a79b-27cb-4f84-8dd1-efb039e2099a"  >
<rect style="stroke: none; stroke-width: 1; stroke-dasharray: none; stroke-linecap: butt; stroke-dashoffset: 0; stroke-linejoin: miter; stroke-miterlimit: 4; fill: rgb(255,255,255); fill-rule: nonzero; opacity: 1; visibility: hidden;" vector-effect="non-scaling-stroke"  x="-540" y="-540" rx="0" ry="0" width="1080" height="1080" />
</g>
<g transform="matrix(14.89 0 0 14.89 540 540)" clip-path="url(#CLIPPATH_59)"  >
<clipPath id="CLIPPATH_59" >
	<rect transform="matrix(1 0 0 1 -25.92 -26.09)" id="clip0" x="-103" y="-52" rx="0" ry="0" width="206" height="104" />
</clipPath>
<path style="stroke: none; stroke-width: 1; stroke-dasharray: none; stroke-linecap: butt; stroke-dashoffset: 0; stroke-linejoin: miter; stroke-miterlimit: 4; fill: rgb(244,37,52); fill-rule: nonzero; opacity: 1;" vector-effect="non-scaling-stroke"  transform=" translate(-128.92, -78.09)" d="M 147.75 70.1875 C 147.757 68.7371 147.361 67.3132 146.604 66.0755 C 145.848 64.8377 144.763 63.8349 143.469 63.1793 C 142.175 62.5237 140.724 62.2413 139.279 62.3636 C 137.833 62.4859 136.451 63.0082 135.285 63.8719 C 134.12 64.7356 133.218 65.9066 132.681 67.2539 C 132.144 68.6011 131.992 70.0714 132.243 71.5 C 132.494 72.9286 133.138 74.2591 134.102 75.3425 C 135.066 76.426 136.313 77.2195 137.703 77.6344 C 137.19 78.6774 136.396 79.5566 135.411 80.1732 C 134.425 80.7899 133.287 81.1195 132.125 81.125 L 125.875 81.125 C 123.561 81.1332 121.333 82.002 119.625 83.5625 L 119.625 68.4656 C 121.522 68.0784 123.208 67.0007 124.355 65.4413 C 125.502 63.8819 126.03 61.952 125.835 60.0258 C 125.641 58.0995 124.738 56.3141 123.302 55.0157 C 121.866 53.7174 119.999 52.9985 118.062 52.9985 C 116.126 52.9985 114.259 53.7174 112.823 55.0157 C 111.387 56.3141 110.484 58.0995 110.29 60.0258 C 110.095 61.952 110.623 63.8819 111.77 65.4413 C 112.917 67.0007 114.603 68.0784 116.5 68.4656 L 116.5 87.5281 C 114.607 87.8903 112.911 88.9327 111.733 90.4589 C 110.556 91.985 109.977 93.8893 110.107 95.8126 C 110.237 97.736 111.066 99.5453 112.438 100.899 C 113.81 102.254 115.63 103.059 117.555 103.163 C 119.48 103.268 121.376 102.665 122.887 101.467 C 124.397 100.27 125.418 98.5606 125.755 96.6626 C 126.092 94.7647 125.723 92.8089 124.718 91.1642 C 123.712 89.5195 122.14 88.2995 120.297 87.7344 C 120.811 86.6926 121.605 85.8146 122.591 85.1991 C 123.576 84.5837 124.713 84.255 125.875 84.25 L 132.125 84.25 C 134.075 84.241 135.973 83.6242 137.556 82.4855 C 139.139 81.3467 140.328 79.7428 140.956 77.8969 C 142.829 77.6506 144.55 76.7338 145.799 75.3163 C 147.048 73.8989 147.741 72.0768 147.75 70.1875 Z M 113.375 60.8125 C 113.375 59.8854 113.65 58.9791 114.165 58.2083 C 114.68 57.4374 115.412 56.8366 116.269 56.4818 C 117.125 56.1271 118.068 56.0342 118.977 56.2151 C 119.886 56.396 120.721 56.8424 121.377 57.498 C 122.033 58.1535 122.479 58.9888 122.66 59.898 C 122.841 60.8073 122.748 61.7498 122.393 62.6064 C 122.038 63.4629 121.438 64.195 120.667 64.71 C 119.896 65.2251 118.99 65.5 118.062 65.5 C 116.819 65.5 115.627 65.0062 114.748 64.1271 C 113.869 63.248 113.375 62.0557 113.375 60.8125 Z M 122.75 95.1875 C 122.75 96.1146 122.475 97.0209 121.96 97.7918 C 121.445 98.5626 120.713 99.1634 119.856 99.5182 C 119 99.873 118.057 99.9658 117.148 99.785 C 116.239 99.6041 115.403 99.1576 114.748 98.5021 C 114.092 97.8465 113.646 97.0113 113.465 96.102 C 113.284 95.1927 113.377 94.2502 113.732 93.3937 C 114.087 92.5372 114.687 91.8051 115.458 91.29 C 116.229 90.7749 117.135 90.5 118.062 90.5 C 119.306 90.5 120.498 90.9939 121.377 91.873 C 122.256 92.752 122.75 93.9443 122.75 95.1875 Z M 139.937 74.875 C 139.01 74.875 138.104 74.6001 137.333 74.085 C 136.562 73.57 135.962 72.8379 135.607 71.9813 C 135.252 71.1248 135.159 70.1823 135.34 69.273 C 135.521 68.3638 135.967 67.5285 136.623 66.873 C 137.278 66.2174 138.114 65.771 139.023 65.5901 C 139.932 65.4092 140.875 65.5021 141.731 65.8568 C 142.588 66.2116 143.32 66.8124 143.835 67.5833 C 144.35 68.3541 144.625 69.2604 144.625 70.1875 C 144.625 71.4307 144.131 72.623 143.252 73.5021 C 142.373 74.3812 141.181 74.875 139.937 74.875 Z" stroke-linecap="round" />
</g>
</svg>