<?xml version="1.0" encoding="UTF-8" standalone="no" ?>
<!DOCTYPE svg PUBLIC "-//W3C//DTD SVG 1.1//EN" "http://www.w3.org/Graphics/SVG/1.1/DTD/svg11.dtd">
<svg xmlns="http://www.w3.org/2000/svg" xmlns:xlink="http://www.w3.org/1999/xlink" version="1.1" width="1080" height="1080" viewBox="0 0 1080 1080" xml:space="preserve">
<desc>Created with Fabric.js 5.2.4</desc>
<defs>
</defs>
<g transform="matrix(1 0 0 1 540 540)" id="573705b7-4d1a-430d-a13f-82a8d0cde22d"  >
</g>
<g transform="matrix(1 0 0 1 540 540)" id="2274a79b-27cb-4f84-8dd1-efb039e2099a"  >
<rect style="stroke: none; stroke-width: 1; stroke-dasharray: none; stroke-linecap: butt; stroke-dashoffset: 0; stroke-linejoin: miter; stroke-miterlimit: 4; fill: rgb(255,255,255); fill-rule: nonzero; opacity: 1; visibility: hidden;" vector-effect="non-scaling-stroke"  x="-540" y="-540" rx="0" ry="0" width="1080" height="1080" />
</g>
<g transform="matrix(11.4 0 0 11.4 535.5 537.25)" clip-path="url(#CLIPPATH_86)"  >
<clipPath id="CLIPPATH_86" >
	<rect transform="matrix(1 0 0 1 -78 -26)" id="clip0" x="-103" y="-52" rx="0" ry="0" width="206" height="104" />
</clipPath>
<path style="stroke: none; stroke-width: 1; stroke-dasharray: none; stroke-linecap: butt; stroke-dashoffset: 0; stroke-linejoin: miter; stroke-miterlimit: 4; fill: rgb(0,0,0); fill-rule: evenodd; opacity: 1;" vector-effect="non-scaling-stroke"  transform=" translate(-181, -78)" d="M 184.125 56.125 L 187.25 53 L 202.875 53 L 206 56.125 L 206 71.75 L 202.875 74.875 L 187.25 74.875 L 184.125 71.75 L 184.125 56.125 Z M 187.25 56.125 L 187.25 71.75 L 202.875 71.75 L 202.875 56.125 L 187.25 56.125 Z M 156 84.25 L 156 65.5 L 159.125 62.375 L 174.75 62.375 L 177.875 65.5 L 177.875 81.125 L 176.312 82.6875 L 176.313 82.6876 L 177.875 81.125 L 193.5 81.125 L 196.625 84.25 L 196.625 99.875 L 193.5 103 L 177.875 103 L 174.75 103 L 174.75 103 L 174.75 103 L 159.125 103 L 156 99.875 L 156 84.25 Z M 159.125 99.875 L 159.125 84.25 L 174.75 84.25 L 174.75 99.875 L 159.125 99.875 Z M 177.875 99.875 L 177.875 84.25 L 193.5 84.25 L 193.5 99.875 L 177.875 99.875 Z M 159.125 81.125 L 159.125 65.5 L 174.75 65.5 L 174.75 81.125 L 159.125 81.125 Z" stroke-linecap="round" />
</g>
</svg>