<?xml version="1.0" encoding="UTF-8" standalone="no" ?>
<!DOCTYPE svg PUBLIC "-//W3C//DTD SVG 1.1//EN" "http://www.w3.org/Graphics/SVG/1.1/DTD/svg11.dtd">
<svg xmlns="http://www.w3.org/2000/svg" xmlns:xlink="http://www.w3.org/1999/xlink" version="1.1" width="1080" height="1080" viewBox="0 0 1080 1080" xml:space="preserve">
<desc>Created with Fabric.js 5.2.4</desc>
<defs>
</defs>
<g transform="matrix(1 0 0 1 540 540)" id="2274a79b-27cb-4f84-8dd1-efb039e2099a"  >
<rect style="stroke: none; stroke-width: 1; stroke-dasharray: none; stroke-linecap: butt; stroke-dashoffset: 0; stroke-linejoin: miter; stroke-miterlimit: 4; fill: rgb(255,255,255); fill-rule: nonzero; opacity: 1; visibility: hidden;" vector-effect="non-scaling-stroke"  x="-540" y="-540" rx="0" ry="0" width="1080" height="1080" />
</g>
<g transform="matrix(1 0 0 1 540 540)" id="573705b7-4d1a-430d-a13f-82a8d0cde22d"  >
</g>
<g transform="matrix(13.34 0 0 13.34 540 512.02)" clip-path="url(#CLIPPATH_80)"  >
<clipPath id="CLIPPATH_80" >
	<rect transform="matrix(1 0 0 1 77.81 -26)" id="clip0" x="-103" y="-52" rx="0" ry="0" width="206" height="104" />
</clipPath>
<path style="stroke: none; stroke-width: 1; stroke-dasharray: none; stroke-linecap: butt; stroke-dashoffset: 0; stroke-linejoin: miter; stroke-miterlimit: 4; fill: rgb(46,49,146); fill-rule: nonzero; opacity: 1;" vector-effect="non-scaling-stroke"  transform=" translate(-25.19, -78)" d="M 25.1875 53 C 26.7663 53 28.2881 53.2035 29.7529 53.6104 C 31.2178 54.0173 32.585 54.5951 33.8545 55.3438 C 35.1403 56.0924 36.304 56.9876 37.3457 58.0293 C 38.3874 59.071 39.2826 60.2347 40.0312 61.5205 C 40.7799 62.79 41.3577 64.1572 41.7646 65.6221 C 42.1716 67.0869 42.375 68.6087 42.375 70.1875 C 42.375 72.5475 41.9274 74.7367 41.0322 76.7549 C 40.137 78.7731 38.8594 80.6042 37.1992 82.248 C 35.8483 83.5827 34.8066 85.0719 34.0742 86.7158 C 33.3581 88.3597 33 90.1419 33 92.0625 L 33 98.3125 C 33 98.9635 32.8779 99.5739 32.6338 100.144 C 32.3896 100.713 32.056 101.21 31.6328 101.633 C 31.2096 102.056 30.7132 102.39 30.1436 102.634 C 29.5739 102.878 28.9635 103 28.3125 103 L 22.0625 103 C 21.4115 103 20.8011 102.878 20.2314 102.634 C 19.6618 102.39 19.1654 102.056 18.7422 101.633 C 18.319 101.21 17.9854 100.713 17.7412 100.144 C 17.4971 99.5739 17.375 98.9635 17.375 98.3125 L 17.375 92.0625 C 17.375 90.1419 17.0088 88.3597 16.2764 86.7158 C 15.5602 85.0719 14.5267 83.5827 13.1758 82.248 C 11.5156 80.6042 10.238 78.7731 9.34277 76.7549 C 8.44759 74.7367 8 72.5475 8 70.1875 C 8 68.6087 8.20345 67.0869 8.61035 65.6221 C 9.01725 64.1572 9.59505 62.79 10.3438 61.5205 C 11.0924 60.2347 11.9876 59.071 13.0293 58.0293 C 14.071 56.9876 15.2266 56.0924 16.4961 55.3438 C 17.7819 54.5951 19.1572 54.0173 20.6221 53.6104 C 22.0869 53.2035 23.6087 53 25.1875 53 Z M 28.3125 99.875 C 28.7357 99.875 29.1019 99.7204 29.4111 99.4111 C 29.7204 99.1019 29.875 98.7357 29.875 98.3125 L 29.875 93.625 L 20.5 93.625 L 20.5 98.3125 C 20.5 98.7357 20.6546 99.1019 20.9639 99.4111 C 21.2731 99.7204 21.6393 99.875 22.0625 99.875 L 28.3125 99.875 Z M 29.9482 90.5 C 30.1598 88.4004 30.6969 86.4961 31.5596 84.7871 C 32.4222 83.0781 33.5859 81.4831 35.0508 80.002 C 36.4017 78.6348 37.4352 77.1455 38.1514 75.5342 C 38.8838 73.9066 39.25 72.1243 39.25 70.1875 C 39.25 68.2507 38.8757 66.4277 38.127 64.7188 C 37.3945 63.0098 36.3936 61.5205 35.124 60.251 C 33.8545 58.9814 32.3652 57.9805 30.6562 57.248 C 28.9473 56.4993 27.1243 56.125 25.1875 56.125 C 23.2507 56.125 21.4277 56.4993 19.7188 57.248 C 18.0098 57.9805 16.5205 58.9814 15.251 60.251 C 13.9814 61.5205 12.9723 63.0098 12.2236 64.7188 C 11.4912 66.4277 11.125 68.2507 11.125 70.1875 C 11.125 72.1243 11.4831 73.9066 12.1992 75.5342 C 12.9316 77.1455 13.9733 78.6348 15.3242 80.002 C 16.7891 81.4831 17.9528 83.0781 18.8154 84.7871 C 19.6781 86.4961 20.2152 88.4004 20.4268 90.5 L 29.9482 90.5 Z" stroke-linecap="round" />
</g>
</svg>