<?xml version="1.0" encoding="UTF-8" standalone="no" ?>
<!DOCTYPE svg PUBLIC "-//W3C//DTD SVG 1.1//EN" "http://www.w3.org/Graphics/SVG/1.1/DTD/svg11.dtd">
<svg xmlns="http://www.w3.org/2000/svg" xmlns:xlink="http://www.w3.org/1999/xlink" version="1.1" width="1080" height="1080" viewBox="0 0 1080 1080" xml:space="preserve">
<desc>Created with Fabric.js 5.2.4</desc>
<defs>
</defs>
<g transform="matrix(1 0 0 1 540 540)" id="2274a79b-27cb-4f84-8dd1-efb039e2099a"  >
<rect style="stroke: none; stroke-width: 1; stroke-dasharray: none; stroke-linecap: butt; stroke-dashoffset: 0; stroke-linejoin: miter; stroke-miterlimit: 4; fill: rgb(255,255,255); fill-rule: nonzero; opacity: 1; visibility: hidden;" vector-effect="non-scaling-stroke"  x="-540" y="-540" rx="0" ry="0" width="1080" height="1080" />
</g>
<g transform="matrix(1 0 0 1 540 540)" id="573705b7-4d1a-430d-a13f-82a8d0cde22d"  >
</g>
<g transform="matrix(14.19 0 0 14.19 575.02 570.26)" clip-path="url(#CLIPPATH_52)"  >
<clipPath id="CLIPPATH_52" >
	<rect transform="matrix(1 0 0 1 26.25 -26)" id="clip0" x="-103" y="-52" rx="0" ry="0" width="206" height="104" />
</clipPath>
<path style="stroke: none; stroke-width: 1; stroke-dasharray: none; stroke-linecap: butt; stroke-dashoffset: 0; stroke-linejoin: miter; stroke-miterlimit: 4; fill: rgb(55,179,74); fill-rule: nonzero; opacity: 1;" vector-effect="non-scaling-stroke"  transform=" translate(-76.75, -78)" d="M 74.7917 81.125 L 72.0417 83.875 C 71.6234 82.1911 70.6537 80.6957 69.2869 79.6269 C 67.9202 78.5581 66.235 77.9774 64.5 77.9774 C 62.765 77.9774 61.0798 78.5581 59.7131 79.6269 C 58.3463 80.6957 57.3766 82.1911 56.9583 83.875 L 54.2083 81.125 L 52 83.3333 L 55.5833 86.9167 L 55.125 87.375 L 55.125 90.5 L 52 90.5 L 52 93.625 L 55.125 93.625 L 55.125 93.7917 C 55.2844 94.8097 55.5714 95.8037 55.9792 96.75 L 52 100.792 L 54.2083 103 L 57.6458 99.5625 C 58.4637 100.606 59.5025 101.455 60.6875 102.05 C 61.8726 102.644 63.1746 102.969 64.5 103 C 65.8254 102.969 67.1274 102.644 68.3125 102.05 C 69.4976 101.455 70.5363 100.606 71.3542 99.5625 L 74.7917 103 L 77 100.792 L 73.0208 96.75 C 73.4337 95.7838 73.7208 94.7685 73.875 93.7292 L 73.875 93.5208 L 77 93.5208 L 77 90.5 L 73.875 90.5 L 73.875 87.375 L 73.4167 86.9167 L 77 83.3333 L 74.7917 81.125 Z M 64.5 81.125 C 65.7432 81.125 66.9355 81.6189 67.8146 82.4979 C 68.6936 83.377 69.1875 84.5693 69.1875 85.8125 L 59.8125 85.8125 C 59.8125 84.5693 60.3064 83.377 61.1854 82.4979 C 62.0645 81.6189 63.2568 81.125 64.5 81.125 L 64.5 81.125 Z M 70.75 93.625 C 70.5974 95.2309 69.8899 96.7335 68.7492 97.8742 C 67.6085 99.0149 66.1059 99.7224 64.5 99.875 C 62.8941 99.7224 61.3915 99.0149 60.2508 97.8742 C 59.1101 96.7335 58.4026 95.2309 58.25 93.625 L 58.25 88.9375 L 70.75 88.9375 L 70.75 93.625 Z M 101.5 73 L 101.5 75.625 L 80.125 89.1875 L 80.125 85.5 L 97.8333 74.3125 L 70.75 57.1667 L 70.75 76.875 C 69.798 76.2063 68.7422 75.6995 67.625 75.375 L 67.625 54.3125 L 70 53 L 101.5 73 Z" stroke-linecap="round" />
</g>
</svg>